<mxfile host="app.diagrams.net" agent="Mozilla/5.0 (Windows NT 10.0; Win64; x64) AppleWebKit/537.36 (KHTML, like Gecko) Chrome/130.0.0.0 Safari/537.36" version="24.8.4">
  <diagram name="Page-1" id="JmyrbKgKlSeQDv9Lzpzo">
    <mxGraphModel grid="1" page="1" gridSize="10" guides="1" tooltips="1" connect="1" arrows="1" fold="1" pageScale="1" pageWidth="850" pageHeight="1100" math="0" shadow="0">
      <root>
        <mxCell id="0" />
        <mxCell id="1" parent="0" />
        <mxCell id="fwxacXunyW8X1veXMItl-1" value="&lt;font style=&quot;font-size: 14px;&quot;&gt;Stock mainatace system&lt;/font&gt;" style="shape=umlFrame;whiteSpace=wrap;html=1;pointerEvents=0;width=170;height=30;" vertex="1" parent="1">
          <mxGeometry x="210" y="90" width="480" height="570" as="geometry" />
        </mxCell>
        <mxCell id="fwxacXunyW8X1veXMItl-8" value="" style="edgeStyle=orthogonalEdgeStyle;rounded=0;orthogonalLoop=1;jettySize=auto;html=1;" edge="1" parent="1" source="fwxacXunyW8X1veXMItl-5" target="fwxacXunyW8X1veXMItl-7">
          <mxGeometry relative="1" as="geometry" />
        </mxCell>
        <mxCell id="fwxacXunyW8X1veXMItl-13" value="" style="edgeStyle=orthogonalEdgeStyle;rounded=0;orthogonalLoop=1;jettySize=auto;html=1;entryX=0.5;entryY=0;entryDx=0;entryDy=0;" edge="1" parent="1" source="fwxacXunyW8X1veXMItl-5" target="fwxacXunyW8X1veXMItl-16">
          <mxGeometry relative="1" as="geometry">
            <mxPoint x="370" y="300" as="targetPoint" />
          </mxGeometry>
        </mxCell>
        <mxCell id="fwxacXunyW8X1veXMItl-38" value="stock depleted/stock recieved" style="edgeLabel;html=1;align=center;verticalAlign=middle;resizable=0;points=[];" connectable="0" vertex="1" parent="fwxacXunyW8X1veXMItl-13">
          <mxGeometry x="-0.0832" y="9" relative="1" as="geometry">
            <mxPoint as="offset" />
          </mxGeometry>
        </mxCell>
        <mxCell id="fwxacXunyW8X1veXMItl-5" value="Out of stock" style="rounded=1;whiteSpace=wrap;html=1;arcSize=40;fontColor=#000000;fillColor=#ffffc0;strokeColor=#ff0000;" vertex="1" parent="1">
          <mxGeometry x="310" y="180" width="120" height="40" as="geometry" />
        </mxCell>
        <mxCell id="fwxacXunyW8X1veXMItl-19" value="" style="edgeStyle=orthogonalEdgeStyle;rounded=0;orthogonalLoop=1;jettySize=auto;html=1;" edge="1" parent="1" source="fwxacXunyW8X1veXMItl-7" target="fwxacXunyW8X1veXMItl-18">
          <mxGeometry relative="1" as="geometry" />
        </mxCell>
        <mxCell id="fwxacXunyW8X1veXMItl-7" value="stock orders" style="rounded=1;whiteSpace=wrap;html=1;arcSize=40;fontColor=#000000;fillColor=#ffffc0;strokeColor=#ff0000;" vertex="1" parent="1">
          <mxGeometry x="510" y="180" width="120" height="40" as="geometry" />
        </mxCell>
        <mxCell id="fwxacXunyW8X1veXMItl-11" value="" style="edgeStyle=orthogonalEdgeStyle;rounded=0;orthogonalLoop=1;jettySize=auto;html=1;" edge="1" parent="1" source="fwxacXunyW8X1veXMItl-9" target="fwxacXunyW8X1veXMItl-5">
          <mxGeometry relative="1" as="geometry" />
        </mxCell>
        <mxCell id="fwxacXunyW8X1veXMItl-9" value="" style="ellipse;html=1;shape=startState;fillColor=#000000;strokeColor=#ff0000;" vertex="1" parent="1">
          <mxGeometry x="230" y="185" width="30" height="30" as="geometry" />
        </mxCell>
        <mxCell id="fwxacXunyW8X1veXMItl-24" value="" style="edgeStyle=orthogonalEdgeStyle;rounded=0;orthogonalLoop=1;jettySize=auto;html=1;" edge="1" parent="1" source="fwxacXunyW8X1veXMItl-16" target="fwxacXunyW8X1veXMItl-23">
          <mxGeometry relative="1" as="geometry" />
        </mxCell>
        <mxCell id="fwxacXunyW8X1veXMItl-16" value="&lt;div&gt;In stock&lt;/div&gt;" style="rounded=1;whiteSpace=wrap;html=1;arcSize=40;fontColor=#000000;fillColor=#ffffc0;strokeColor=#ff0000;" vertex="1" parent="1">
          <mxGeometry x="310" y="420" width="120" height="40" as="geometry" />
        </mxCell>
        <mxCell id="fwxacXunyW8X1veXMItl-21" value="" style="edgeStyle=orthogonalEdgeStyle;rounded=0;orthogonalLoop=1;jettySize=auto;html=1;" edge="1" parent="1" source="fwxacXunyW8X1veXMItl-18" target="fwxacXunyW8X1veXMItl-20">
          <mxGeometry relative="1" as="geometry" />
        </mxCell>
        <mxCell id="fwxacXunyW8X1veXMItl-18" value="stock In Transit" style="rounded=1;whiteSpace=wrap;html=1;arcSize=40;fontColor=#000000;fillColor=#ffffc0;strokeColor=#ff0000;" vertex="1" parent="1">
          <mxGeometry x="510" y="300" width="120" height="40" as="geometry" />
        </mxCell>
        <mxCell id="fwxacXunyW8X1veXMItl-22" value="" style="edgeStyle=orthogonalEdgeStyle;rounded=0;orthogonalLoop=1;jettySize=auto;html=1;" edge="1" parent="1" source="fwxacXunyW8X1veXMItl-20" target="fwxacXunyW8X1veXMItl-16">
          <mxGeometry relative="1" as="geometry" />
        </mxCell>
        <mxCell id="fwxacXunyW8X1veXMItl-26" value="" style="edgeStyle=orthogonalEdgeStyle;rounded=0;orthogonalLoop=1;jettySize=auto;html=1;" edge="1" parent="1" source="fwxacXunyW8X1veXMItl-20" target="fwxacXunyW8X1veXMItl-25">
          <mxGeometry relative="1" as="geometry" />
        </mxCell>
        <mxCell id="fwxacXunyW8X1veXMItl-20" value="Stock reserved" style="rounded=1;whiteSpace=wrap;html=1;arcSize=40;fontColor=#000000;fillColor=#ffffc0;strokeColor=#ff0000;" vertex="1" parent="1">
          <mxGeometry x="510" y="420" width="120" height="40" as="geometry" />
        </mxCell>
        <mxCell id="fwxacXunyW8X1veXMItl-34" value="" style="edgeStyle=orthogonalEdgeStyle;rounded=0;orthogonalLoop=1;jettySize=auto;html=1;" edge="1" parent="1" source="fwxacXunyW8X1veXMItl-23" target="fwxacXunyW8X1veXMItl-30">
          <mxGeometry relative="1" as="geometry" />
        </mxCell>
        <mxCell id="fwxacXunyW8X1veXMItl-23" value="&lt;div&gt;Stock used&lt;/div&gt;" style="rounded=1;whiteSpace=wrap;html=1;arcSize=40;fontColor=#000000;fillColor=#ffffc0;strokeColor=#ff0000;" vertex="1" parent="1">
          <mxGeometry x="310" y="540" width="120" height="40" as="geometry" />
        </mxCell>
        <mxCell id="fwxacXunyW8X1veXMItl-35" value="" style="edgeStyle=orthogonalEdgeStyle;rounded=0;orthogonalLoop=1;jettySize=auto;html=1;entryX=1;entryY=0.5;entryDx=0;entryDy=0;" edge="1" parent="1" source="fwxacXunyW8X1veXMItl-25" target="fwxacXunyW8X1veXMItl-30">
          <mxGeometry relative="1" as="geometry">
            <Array as="points">
              <mxPoint x="570" y="640" />
            </Array>
          </mxGeometry>
        </mxCell>
        <mxCell id="fwxacXunyW8X1veXMItl-25" value="Stock used" style="rounded=1;whiteSpace=wrap;html=1;arcSize=40;fontColor=#000000;fillColor=#ffffc0;strokeColor=#ff0000;" vertex="1" parent="1">
          <mxGeometry x="510" y="540" width="120" height="40" as="geometry" />
        </mxCell>
        <mxCell id="fwxacXunyW8X1veXMItl-30" value="" style="ellipse;html=1;shape=endState;fillColor=#000000;strokeColor=#ff0000;" vertex="1" parent="1">
          <mxGeometry x="358.75" y="630" width="22.5" height="20" as="geometry" />
        </mxCell>
        <mxCell id="fwxacXunyW8X1veXMItl-40" value="stock recieved" style="text;html=1;align=center;verticalAlign=middle;resizable=0;points=[];autosize=1;strokeColor=none;fillColor=none;" vertex="1" parent="1">
          <mxGeometry x="560" y="360" width="100" height="30" as="geometry" />
        </mxCell>
        <mxCell id="fwxacXunyW8X1veXMItl-41" value="Stock depleted" style="text;html=1;align=center;verticalAlign=middle;resizable=0;points=[];autosize=1;strokeColor=none;fillColor=none;" vertex="1" parent="1">
          <mxGeometry x="358.75" y="478" width="100" height="30" as="geometry" />
        </mxCell>
        <mxCell id="fwxacXunyW8X1veXMItl-42" value="stock depleted" style="text;html=1;align=center;verticalAlign=middle;resizable=0;points=[];autosize=1;strokeColor=none;fillColor=none;" vertex="1" parent="1">
          <mxGeometry x="560" y="478" width="100" height="30" as="geometry" />
        </mxCell>
      </root>
    </mxGraphModel>
  </diagram>
</mxfile>
